<svg xmlns="http://www.w3.org/2000/svg" viewBox="0 0 336.55 424.74"><defs><style>.cls-1{fill:#040000;}</style></defs><title>shop-bag-trylah</title><g id="Layer_2" data-name="Layer 2"><g id="Layer_1-2" data-name="Layer 1"><path class="cls-1" d="M336.36,350.31l-19-239.07v-2.83A30.34,30.34,0,0,0,288,83.73H250.4v57.85a12.59,12.59,0,1,1-25.08-2.22V83.73H111.24V82.12a59.51,59.51,0,0,1,0-6.81,57.24,57.24,0,0,1,114.28,6.81v1.61H250.4V82.12a82,82,0,1,0-164,0v1.61H111v57.85a12.38,12.38,0,1,1-24.67-2.22V83.94H45.92a29.72,29.72,0,0,0-25.69,27.3L0,350.31v5.46a69.38,69.38,0,0,0,69.78,69H272a68.35,68.35,0,0,0,46.11-22.25A69.36,69.36,0,0,0,336.36,350.31ZM255.27,221.09q-3.72,3-11.75,2.41-18.09-1.4-28.23-1.91t-26.62-.7q-7.44,37-13.67,74.34-2.2,13.66-4.62,31.64t-3.21,29a11.3,11.3,0,0,1-4.82,8.94A18,18,0,0,1,151.7,368q-6.63,0-10.25-3.22a10.74,10.74,0,0,1-3.61-8.44,137.26,137.26,0,0,1,1.5-16q1.51-11.15,3.52-23.4,2.2-12.26,3.41-21.3,2.22-15.27,5-30.34t5.62-28.53q.6-3,1.41-6.93c.53-2.61,1.13-5.53,1.81-8.74q-19.69.6-30.94,3.21t-16,7.34a16.44,16.44,0,0,0-4.72,12.15,23.7,23.7,0,0,0,4,13.06,6.07,6.07,0,0,1,.8,3c0,2.54-1.5,4.92-4.52,7.13a15.58,15.58,0,0,1-9.34,3.31,8,8,0,0,1-5.62-2,24.72,24.72,0,0,1-6.63-9.74,37.22,37.22,0,0,1-2.62-14.37q0-17.07,11.15-27.42t34-15.17q22.8-4.82,58.56-4.82,22.11,0,35.26.8a196.79,196.79,0,0,1,23,2.61q6.22,1.22,9.34,4.22a9.5,9.5,0,0,1,3.12,7Q259,218.08,255.27,221.09Z"/></g></g></svg>