<svg xmlns="http://www.w3.org/2000/svg" viewBox="0 0 131.03 131.03"><defs><style>.cls-1{fill:#231815;}</style></defs><title>Asset 2</title><g id="Layer_2" data-name="Layer 2"><g id="Layer_1-2" data-name="Layer 1"><path class="cls-1" d="M65.52,0A65.52,65.52,0,1,0,131,65.52,65.51,65.51,0,0,0,65.52,0ZM77.83,93.1H62.88c-.82,0-1.23-.49-1.23-1.48q0-4.26.32-12.79T62.29,66c0-.81-.13-1.25-.38-1.31q-.46.25-5.66,13l-6.08,15a1.77,1.77,0,0,1-1.06,1.14,16.33,16.33,0,0,1-1.69,0q-2.19,0-2.61-.84-2.28-4.65-6-13.51-4-9.37-6-13.56a1.45,1.45,0,0,0-.38-.46,2,2,0,0,0-.3,1.22q0,4.14.21,12.42t.21,12.41c0,1-.39,1.48-1.18,1.48H17.32c-.57,0-.91-.09-1-.28a1.71,1.71,0,0,1-.19-.95q0-4.59.44-13.82T17,64.22q0-4.9-.42-18.37,0-3.51-.38-10.43l-.05-.72c0-.56.57-.84,1.78-.84q2.32,0,7-.15t7-.15c.31,0,.75.59,1.31,1.77L45.48,62.4c.87,1.83,1.61,2.75,2.2,2.75.31,0,1-1.06,2-3.17q4.26-8.86,12.63-26.73Q63,33.6,63.85,33.6c.82,0,2.05,0,3.69.13s2.9.13,3.74.13,1.78-.07,3.23-.22,2.53-.21,3.23-.21c.85,0,1.27.34,1.27,1q0,5-.36,14.88t-.36,14.89c0,3.06.13,7.67.38,13.8s.38,10.73.38,13.77C79.05,92.66,78.64,93.1,77.83,93.1Zm30.65-4.73a30.82,30.82,0,0,1-15.41,6.88,4.27,4.27,0,0,1-.55,0c-.65,0-2.08-2-4.31-5.93S84.88,83,84.88,82.12c0-.31.21-.51.63-.59a44.43,44.43,0,0,0,8.11-2.37Q98,77,98,72.66q0-2.75-2.87-6.12-5-5.75-5.41-6.38a17.18,17.18,0,0,1-2.91-9.71q0-7.73,7.14-12.84a32.13,32.13,0,0,1,14.31-5.49l.72,0c.42,0,.76.34,1,1q1.09,3.07,5.11,11.14a.94.94,0,0,1,.13.43c0,.47-.25.71-.76.71a8.74,8.74,0,0,1-1.14-.12,7.88,7.88,0,0,0-1.23-.13,10,10,0,0,0-5.32,1.39A5,5,0,0,0,104.05,51q0,2.58,3,6.33,5.35,6.77,5.62,7.1a17,17,0,0,1,3,9.24Q115.7,82.25,108.48,88.37Z"/></g></g></svg>