<svg xmlns="http://www.w3.org/2000/svg" viewBox="0 0 497.96 366.93"><title>secure-card</title><g id="Layer_2" data-name="Layer 2"><g id="Layer_1-2" data-name="Layer 1"><path d="M298.49,279.89l-244.11-.37a19.72,19.72,0,0,1-19.63-19.65V117h368v13.79c9.27,0,17.59-.08,25.9,0,3,.05,3.57-1.44,3.55-4-.15-24.5-.05-49-.41-73.5-.32-21.62-11.87-36.59-29.77-47.1a35.24,35.24,0,0,0-14.88-4.65C374.82.51,362.43,0,350.07,0,250.39.1,150.72.65,51,.39,27.59.33,0,25.15,0,51.3Q0,155.54,0,259.78c0,23,11.85,38.8,31.33,49.35a36.79,36.79,0,0,0,14.39,4.31c9.95.86,20,1,30,1q112.77.15,225.53.14c1.45,0,2.91-.13,4.5-.2V279.89ZM35.21,51c1.85-9.4,8.85-14.8,19.06-14.85q124-.57,248-1c26.16-.07,52.33.72,78.49.58,14.11-.07,20.41,10.42,21.13,20,.17,2.3.46,4.59.73,7.22H34.44C34.68,58.81,34.45,54.8,35.21,51Z"/><path d="M497.89,273.67c0-9.7-6.16-15.66-14.22-19.42-3.45-1.61-4.09-3.43-4.12-6.73-.09-14.16.2-28.37-.79-42.48-1.59-22.91-21.37-43.78-44.14-46.33A215.91,215.91,0,0,0,399.2,158c-22.82,1.24-45.22,23.57-46.58,46.33-.88,14.63-.57,29.32-.75,44,0,2.36.12,4.28-2.92,5.42-9.71,3.67-16,10.61-16.06,21.29-.18,24-.2,48,.51,72,.33,11,10.21,19.67,21.36,19.81,20.33.26,40.66.08,61,.08v-.08c20.5,0,41,.11,61.49-.05,9.34-.07,20.18-9.27,20.35-18.13C498.06,323.64,498,298.65,497.89,273.67ZM426.34,310c-1.35,3.44-2.88,6.9-3.5,10.5s-.1,7.65-.37,11.47c-.31,4.36-3.6,7.9-6.94,7.86s-6.52-3.63-6.82-7.93c-.2-3-.17-6-.24-9-.13-5.31-.17-10.31-4.39-14.77-3.83-4.06-2.89-10.41.82-15.21a13.15,13.15,0,0,1,15.18-4.53,15.73,15.73,0,0,1,10.12,13.16C428.9,304.34,427.47,307.1,426.34,310ZM452,210.16c-.65,13.46-.15,27-.15,40.8H379.58c0-4.45,0-8.41,0-12.38,0-9.66-.06-19.33.15-29a25,25,0,0,1,23.84-24.77c8.14-.41,16.33,0,24.49,0C439.92,184.89,452.64,197,452,210.16Z"/></g></g></svg>