<?xml version="1.0" encoding="utf-8"?>
<!-- Generator: Adobe Illustrator 24.0.1, SVG Export Plug-In . SVG Version: 6.00 Build 0)  -->
<svg version="1.1" id="Layer_1" xmlns="http://www.w3.org/2000/svg" xmlns:xlink="http://www.w3.org/1999/xlink" x="0px" y="0px"
	 viewBox="0 0 24 24" style="enable-background:new 0 0 24 24;" xml:space="preserve">
<style type="text/css">
	.st0{fill:#FF4842;}
</style>
<path class="st0" d="M15.3,8.9l-4.7,4.7l-1.8-1.9c-0.4-0.4-1-0.4-1.4,0s-0.4,1,0,1.4l2.6,2.6c0.4,0.4,1,0.4,1.4,0c0,0,0,0,0,0
	l5.4-5.4c0.4-0.4,0.4-1,0-1.4S15.7,8.5,15.3,8.9z M12,2C6.5,2,2,6.5,2,12c0,2.3,0.8,4.5,2.3,6.3l-2,2C2,20.6,1.9,21,2.1,21.4
	C2.2,21.8,2.6,22,3,22h9c5.5,0,10-4.5,10-10S17.5,2,12,2z M12,20H5.4l0.9-0.9c0.4-0.4,0.4-1,0-1.4c-3.1-3.1-3.1-8.2,0-11.3
	s8.2-3.1,11.3,0s3.1,8.2,0,11.3C16.2,19.2,14.1,20,12,20z"/>
</svg>
